<svg xmlns="http://www.w3.org/2000/svg" width="17.137" height="17.137" viewBox="0 0 17.137 17.137">
  <path id="_036-facebook" data-name="036-facebook" d="M14.83,0H2.311A2.309,2.309,0,0,0,0,2.309V14.828a2.309,2.309,0,0,0,2.309,2.309H8.485L8.5,11.013H6.9a.375.375,0,0,1-.375-.374L6.522,8.665A.375.375,0,0,1,6.9,8.289H8.485V6.381a3.116,3.116,0,0,1,3.326-3.419h1.62a.375.375,0,0,1,.375.375V5a.375.375,0,0,1-.375.375h-.994c-1.074,0-1.282.51-1.282,1.259V8.289h2.36a.375.375,0,0,1,.373.42l-.234,1.974a.375.375,0,0,1-.373.331H11.167l-.011,6.124H14.83a2.309,2.309,0,0,0,2.309-2.309V2.309A2.309,2.309,0,0,0,14.83,0Z" transform="translate(-0.002)" fill="#e60000"/>
</svg>
