<svg xmlns="http://www.w3.org/2000/svg" width="19.969" height="19.969" viewBox="0 0 19.969 19.969">
  <path id="Path_3601" data-name="Path 3601" d="M-12-9.516l6-4.5-6-4.5Zm8.016-12.469A1.891,1.891,0,0,1-2.6-21.4a1.891,1.891,0,0,1,.586,1.383v12A1.969,1.969,0,0,1-2.6-6.609,1.856,1.856,0,0,1-3.984-6h-12a1.932,1.932,0,0,1-1.406-.609A1.932,1.932,0,0,1-18-8.016v-12a1.856,1.856,0,0,1,.609-1.383,1.969,1.969,0,0,1,1.406-.586ZM-20.016-18V-3.984H-6v1.969H-20.016A1.891,1.891,0,0,1-21.4-2.6a1.891,1.891,0,0,1-.586-1.383V-18Z" transform="translate(21.984 21.984)" fill="#9e9e9e"/>
</svg>
