<svg xmlns="http://www.w3.org/2000/svg" width="17.35" height="19.653" viewBox="0 0 17.35 19.653">
  <g id="horoscope" transform="translate(-30)">
    <path id="Path_3615" data-name="Path 3615" d="M31.882,211H30v3.455h1.882A9.269,9.269,0,0,0,31.882,211Z" transform="translate(0 -202.901)" fill="#9e9e9e"/>
    <path id="Path_3616" data-name="Path 3616" d="M230.426,211a15.152,15.152,0,0,1,0,3.455h1.963a15.149,15.149,0,0,1,0-3.455Z" transform="translate(-192.733 -202.901)" fill="#9e9e9e"/>
    <path id="Path_3617" data-name="Path 3617" d="M428.9,211a9.271,9.271,0,0,0,0,3.455h1.882V211Z" transform="translate(-383.435 -202.901)" fill="#9e9e9e"/>
    <path id="Path_3618" data-name="Path 3618" d="M36.024,0,33.582,2.433l.366.406a10.41,10.41,0,0,1,0,13.976l-.366.406,2.442,2.433.406-.433a13.9,13.9,0,0,0,0-18.787Z" transform="translate(-3.445 0)" fill="#9e9e9e"/>
    <path id="Path_3619" data-name="Path 3619" d="M315.137,2.839l.366-.406L313.061,0l-.406.433a13.9,13.9,0,0,0,0,18.787l.406.433,2.442-2.433-.366-.406a10.41,10.41,0,0,1,0-13.976Z" transform="translate(-268.29)" fill="#9e9e9e"/>
  </g>
</svg>
