<svg id="_029-instagram" data-name="029-instagram" xmlns="http://www.w3.org/2000/svg" width="16.344" height="16.344" viewBox="0 0 16.344 16.344">
  <path id="Path_3622" data-name="Path 3622" d="M11.475,0H4.869A4.874,4.874,0,0,0,0,4.869v6.606a4.874,4.874,0,0,0,4.869,4.869h6.606a4.874,4.874,0,0,0,4.869-4.869V4.869A4.874,4.874,0,0,0,11.475,0ZM14.7,11.475A3.225,3.225,0,0,1,11.475,14.7H4.869a3.225,3.225,0,0,1-3.225-3.225V4.869A3.225,3.225,0,0,1,4.869,1.644h6.606A3.225,3.225,0,0,1,14.7,4.869v6.606Z" fill="#e60000"/>
  <path id="Path_3623" data-name="Path 3623" d="M137.227,133a4.227,4.227,0,1,0,4.227,4.227A4.232,4.232,0,0,0,137.227,133Zm0,6.81a2.583,2.583,0,1,1,2.583-2.583A2.583,2.583,0,0,1,137.227,139.81Z" transform="translate(-129.055 -129.055)" fill="#e60000"/>
  <circle id="Ellipse_7" data-name="Ellipse 7" cx="1.013" cy="1.013" r="1.013" transform="translate(11.394 2.964)" fill="#e60000"/>
</svg>
