<svg xmlns="http://www.w3.org/2000/svg" width="20.057" height="20.057" viewBox="0 0 20.057 20.057">
  <g id="Group_4254" data-name="Group 4254" transform="translate(-336 -60)">
    <g id="_24px_19_" data-name="24px (19)" transform="translate(336 60)">
      <path id="Path_3111" data-name="Path 3111" d="M0,0H20.057V20.057H0Z" fill="none"/>
    </g>
    <path id="settings_24px" d="M16.611,11.176a6.513,6.513,0,0,0,.058-.819,6.513,6.513,0,0,0-.058-.819l1.763-1.379a.422.422,0,0,0,.1-.535L16.8,4.733a.42.42,0,0,0-.51-.184l-2.081.836A6.106,6.106,0,0,0,12.8,4.566l-.318-2.215A.408.408,0,0,0,12.073,2H8.73a.408.408,0,0,0-.409.351L8,4.566a6.421,6.421,0,0,0-1.412.819L4.51,4.549A.408.408,0,0,0,4,4.733L2.329,7.624a.412.412,0,0,0,.1.535L4.192,9.538a6.627,6.627,0,0,0-.058.819,6.627,6.627,0,0,0,.058.819L2.429,12.555a.422.422,0,0,0-.1.535L4,15.981a.42.42,0,0,0,.51.184l2.081-.836A6.106,6.106,0,0,0,8,16.148l.318,2.215a.408.408,0,0,0,.409.351h3.343a.408.408,0,0,0,.409-.351l.318-2.215a6.421,6.421,0,0,0,1.412-.819l2.081.836a.408.408,0,0,0,.51-.184l1.671-2.892a.422.422,0,0,0-.1-.535ZM10.4,13.282a2.925,2.925,0,1,1,2.925-2.925A2.928,2.928,0,0,1,10.4,13.282Z" transform="translate(335.401 59.671)" fill="#9e9e9e"/>
  </g>
</svg>
