<svg xmlns="http://www.w3.org/2000/svg" width="20.057" height="20.057" viewBox="0 0 20.057 20.057">
  <g id="Group_4505" data-name="Group 4505" transform="translate(-336 -60)">
    <g id="_24px_19_" data-name="24px (19)" transform="translate(336 60)">
      <path id="Path_3111" data-name="Path 3111" d="M0,0H20.057V20.057H0Z" fill="none"/>
    </g>
    <path id="Path_3626" data-name="Path 3626" d="M13.5-5.941a2.076,2.076,0,0,1,1.547.65,2.122,2.122,0,0,1,.633,1.529,2.133,2.133,0,0,1-.65,1.564,2.093,2.093,0,0,1-1.529.65,2.093,2.093,0,0,1-1.529-.65,2.133,2.133,0,0,1-.65-1.564,2.329,2.329,0,0,1,.035-.492L6.047-7.348a2.25,2.25,0,0,1-1.547.6,2.162,2.162,0,0,1-1.582-.668A2.162,2.162,0,0,1,2.25-9a2.162,2.162,0,0,1,.668-1.582A2.162,2.162,0,0,1,4.5-11.25a2.25,2.25,0,0,1,1.547.6l5.273-3.059a2.961,2.961,0,0,1-.07-.527,2.162,2.162,0,0,1,.668-1.582,2.162,2.162,0,0,1,1.582-.668,2.162,2.162,0,0,1,1.582.668,2.162,2.162,0,0,1,.668,1.582,2.162,2.162,0,0,1-.668,1.582,2.162,2.162,0,0,1-1.582.668,2.264,2.264,0,0,1-1.547-.633L6.68-9.527A2.961,2.961,0,0,1,6.75-9a2.961,2.961,0,0,1-.07.527l5.344,3.094A2.153,2.153,0,0,1,13.5-5.941Z" transform="translate(336.75 79.488)" fill="#333" stroke="rgba(0,0,0,0)" stroke-width="1"/>
  </g>
</svg>
