<svg xmlns="http://www.w3.org/2000/svg" width="17.195" height="14.303" viewBox="0 0 17.195 14.303">
  <path id="_008-twitter" data-name="008-twitter" d="M16.922,36.155a6.808,6.808,0,0,1-1.186.4A3.7,3.7,0,0,0,16.712,35h0a.194.194,0,0,0-.284-.226h0a6.841,6.841,0,0,1-1.813.749.462.462,0,0,1-.113.014.48.48,0,0,1-.317-.121,3.707,3.707,0,0,0-2.453-.926,3.964,3.964,0,0,0-1.174.181,3.591,3.591,0,0,0-2.42,2.588,3.955,3.955,0,0,0-.088,1.365.133.133,0,0,1-.033.1.137.137,0,0,1-.1.046H7.9A9.72,9.72,0,0,1,1.22,35.205h0A.194.194,0,0,0,.9,35.23h0a3.711,3.711,0,0,0,.6,4.506,3.322,3.322,0,0,1-.846-.327h0a.194.194,0,0,0-.288.167h0A3.712,3.712,0,0,0,2.537,43H2.458a3.336,3.336,0,0,1-.625-.06h0a.194.194,0,0,0-.221.25h0a3.715,3.715,0,0,0,2.935,2.527A6.841,6.841,0,0,1,.716,46.877H.287a.284.284,0,0,0-.277.214.294.294,0,0,0,.141.324,10.175,10.175,0,0,0,5.113,1.379,10.314,10.314,0,0,0,4.369-.927,9.648,9.648,0,0,0,3.2-2.4,10.5,10.5,0,0,0,1.957-3.278,10.356,10.356,0,0,0,.665-3.588v-.056a.631.631,0,0,1,.236-.491,7.327,7.327,0,0,0,1.474-1.618h0a.194.194,0,0,0-.24-.285Z" transform="translate(0 -34.491)" fill="#e60000"/>
</svg>
