<svg xmlns="http://www.w3.org/2000/svg" width="17.35" height="19.653" viewBox="0 0 17.35 19.653"><defs><style>.a{fill:#9e9e9e;}</style></defs><g transform="translate(-30)"><path class="a" d="M31.882,211H30v3.455h1.882A9.269,9.269,0,0,0,31.882,211Z" transform="translate(0 -202.901)"/><path class="a" d="M230.426,211a15.152,15.152,0,0,1,0,3.455h1.963a15.149,15.149,0,0,1,0-3.455Z" transform="translate(-192.733 -202.901)"/><path class="a" d="M428.9,211a9.271,9.271,0,0,0,0,3.455h1.882V211Z" transform="translate(-383.435 -202.901)"/><path class="a" d="M36.024,0,33.582,2.433l.366.406a10.41,10.41,0,0,1,0,13.976l-.366.406,2.442,2.433.406-.433a13.9,13.9,0,0,0,0-18.787Z" transform="translate(-3.445 0)"/><path class="a" d="M315.137,2.839l.366-.406L313.061,0l-.406.433a13.9,13.9,0,0,0,0,18.787l.406.433,2.442-2.433-.366-.406a10.41,10.41,0,0,1,0-13.976Z" transform="translate(-268.29)"/></g></svg>