<svg xmlns="http://www.w3.org/2000/svg" width="19.517" height="19.517" viewBox="0 0 19.517 19.517"><defs><style>.a{fill:#e60000;}</style></defs><path class="a" d="M18.3,0H6.1a1.219,1.219,0,0,0-1.22,1.22V9.758H1.22A1.219,1.219,0,0,0,0,10.978v4.879a3.663,3.663,0,0,0,3.659,3.659h12.2a3.663,3.663,0,0,0,3.659-3.659V1.22A1.219,1.219,0,0,0,18.3,0ZM4.879,15.857a1.22,1.22,0,1,1-2.44,0V12.2h2.44Zm6.1-12.808h2.44a1.22,1.22,0,0,1,0,2.44h-2.44a1.22,1.22,0,0,1,0-2.44Zm4.879,9.758H8.539a1.22,1.22,0,1,1,0-2.44h7.319a1.22,1.22,0,1,1,0,2.44Zm0-3.659H8.539a1.22,1.22,0,1,1,0-2.44h7.319a1.22,1.22,0,0,1,0,2.44Z"/></svg>